<svg xmlns="http://www.w3.org/2000/svg" xmlns:xlink="http://www.w3.org/1999/xlink" version="1.1" x="0px" y="0px" viewBox="0 0 100 125" enable-background="new 0 0 100 100" xml:space="preserve"><path d="M58.3447266,53.9833984c0.4140625-0.0107422,0.7416992-0.3544922,0.7314453-0.7685547  c-0.0107422-0.4140625-0.3525391-0.730957-0.7685547-0.7314453c-4.6669922,0.1165771-7.1878662,2.2121582-8.4202271,3.7504272  c-0.1340332-0.6915894-0.2301636-1.3621216-0.2833862-1.9755249c-0.0356445-0.4130859-0.4047852-0.7207031-0.8120117-0.6821289  c-0.4125977,0.0356445-0.7177734,0.3989258-0.6821289,0.8120117c0.2739258,3.159668,1.3613281,7.5615234,4.9873047,10.5869141  c0.1401367,0.1171875,0.3105469,0.1743164,0.4799805,0.1743164c0.2148438,0,0.4282227-0.0917969,0.5761719-0.2695313  c0.265625-0.3178711,0.2226563-0.7910156-0.0952148-1.0561523c-1.9121704-1.5955811-3.0214844-3.645874-3.6702881-5.6507568  c0.3015747-0.5667725,1.2481079-2.0592651,3.307251-3.1033325c-1.7166138,3.2419434-0.1307983,6.34375-0.111084,6.3815308  c0.1347656,0.2539063,0.3950195,0.3989258,0.6635742,0.3989258c0.1186523,0,0.2387695-0.027832,0.3505859-0.0869141  c0.3657227-0.1938477,0.5053711-0.6479492,0.3120117-1.0141602c-0.0187378-0.0350952-1.7832031-3.4909058,1.2907715-6.5330811  C56.8491821,54.0858765,57.5618286,54.0029297,58.3447266,53.9833984z"/><path d="M74.2910156,88.8754883c-1.894043-0.5068359-3.0395508-1.4008789-3.5029297-2.7324219  c-1.2514648-3.6000977,2.8369141-9.152832,2.878418-9.2084961c0.2470703-0.3320313,0.1787109-0.8022461-0.1533203-1.0493164  c-0.331543-0.2475586-0.8017578-0.1796875-1.0493164,0.152832c-0.1889648,0.2529297-4.6040039,6.2441406-3.0932617,10.5952148  C70,88.4462891,71.5249023,89.6879883,73.9033203,90.324707c0.0649414,0.0170898,0.1303711,0.0253906,0.1943359,0.0253906  c0.3310547,0,0.6342773-0.2207031,0.7241211-0.5561523C74.9287109,89.394043,74.6914063,88.9829102,74.2910156,88.8754883z"/><path d="M35.5175781,62.7260742c-2.4213867,1.9384766-4.5708008,1.1176758-4.9189453,0.9638672  c-6.2216797-4.625-11.2626953-0.1713867-11.3129883-0.1259766c-0.3061523,0.277832-0.3291016,0.7495117-0.0522461,1.0566406  c0.2753906,0.3066406,0.75,0.3325195,1.0581055,0.0561523c0.1704102-0.1518555,4.2299805-3.6801758,9.4677734,0.2583008  c0.0341797,0.0258789,0.0703125,0.0488281,0.1083984,0.0683594c0.0698242,0.0356445,0.9863281,0.4907227,2.3408203,0.4907227  c1.1748047,0,2.6791992-0.3422852,4.246582-1.597168c3.6328125-2.9086914,4.7817383-6.8295898,4.8286133-6.9951172  c0.1137695-0.3984375-0.1176758-0.8134766-0.515625-0.9267578c-0.4023438-0.1142578-0.8134766,0.1171875-0.9267578,0.515625  C39.8310547,56.5268555,38.7807617,60.1132813,35.5175781,62.7260742z"/><path d="M30.6801758,80.3208008c-0.3393555-0.2373047-0.8066406-0.1552734-1.0449219,0.1835938l-3.2890625,4.6938477  l-0.0527954,0.0028076c0.616272-1.734375,0.5723267-3.2415161-0.156189-4.4842529  c-1.1478271-1.9580688-3.663147-2.6643066-5.1195679-2.9154663c0.1143799-0.1343384,0.2563477-0.2646484,0.4379272-0.3692017  c0.6328125-0.3632813,1.5844727-0.3388672,2.675293,0.0366211c0.1508789,0.0732422,1.5185547,0.6923828,2.7416992,0.012207  c0.847168-0.4707031,1.3515625-1.4047852,1.5004883-2.7758789c0.0449219-0.4121094-0.2529297-0.7822266-0.6645508-0.8266602  c-0.4243164-0.0454102-0.7822266,0.2529297-0.8266602,0.6645508c-0.0639648,0.5883789-0.2426758,1.347168-0.7329102,1.6240234  C25.6811523,76.4316406,25,76.21875,24.703125,76.0849609c-1.6147461-0.5649414-2.9589844-0.5493164-3.9956055,0.046875  c-1.0883789,0.6264648-1.4477539,1.6962891-1.5375977,2.0366211c-0.4980469,1.1108398-0.5678711,2.1450195-0.2060547,3.074707  c0.5605469,1.4414063,1.9692383,2.0429688,2.0292969,2.0678711c0.09375,0.0390625,0.1914063,0.0576172,0.2871094,0.0576172  c0.2915039,0,0.5678711-0.171875,0.6894531-0.4575195c0.1611328-0.3793945-0.0166016-0.8188477-0.3945313-0.9829102  c-0.0092773-0.0039063-0.8959961-0.3959961-1.2177734-1.2402344c-0.1629639-0.4272461-0.1536255-0.9200439,0.0175781-1.4669189  c1.0827637,0.145813,3.5283203,0.6460571,4.4702148,2.2574463c0.56427,0.9653931,0.4922485,2.2481079-0.1970825,3.8092651  l-7.8612671,0.4145508c-0.376709-2.9695435,0.8920898-4.8078613,0.9572754-4.897644  c0.2456055-0.3320313,0.1762695-0.800293-0.1547852-1.0473633c-0.331543-0.2470703-0.8017578-0.1777344-1.0498047,0.1533203  c-0.0639038,0.0861206-1.2661133,1.7456665-1.3363037,4.4679565l-2.7813721-2.9996948  c-0.28125-0.3046875-0.7568359-0.3212891-1.0595703-0.0400391c-0.3037109,0.28125-0.3217773,0.7558594-0.0400391,1.0595703  l4.2641602,4.5991211c0.0102539,0.0111084,0.0253296,0.0152588,0.0361938,0.0256958  c0.0484009,0.0463257,0.102417,0.0826416,0.1611938,0.114563c0.0255737,0.013855,0.0477295,0.03125,0.074707,0.0421143  c0.0871582,0.0350952,0.1795044,0.0578613,0.2767334,0.0578613c0.0002441,0,0.0004272-0.000061,0.0006714-0.000061  c0.0001221,0,0.0001831,0.000061,0.0003052,0.000061c0.0131836,0,0.0263672-0.0004883,0.0395508-0.0009766l10.6142578-0.5600586  c0.2304688-0.012207,0.4423828-0.1298828,0.574707-0.3183594l3.4990234-4.9926758  C31.1015625,81.0263672,31.019043,80.5585938,30.6801758,80.3208008z"/><path d="M20.3452148,70.4541016c0.4077148-0.0361328,0.7119141-0.3935547,0.6816406-0.8032227  c-0.03125-0.4135742-0.3989258-0.7250977-0.8041992-0.6918945c-0.1118164,0.0083008-1.1054688,0.1074219-1.5268555,0.9936523  c-0.3701172,0.7792969-0.1254883,1.7666016,0.7475586,3.019043c0.0424805,0.0610352,0.09375,0.1152344,0.1518555,0.1611328  c0.1601563,0.1254883,1.3583984,1.0317383,2.6303711,1.0317383c0.2924805,0,0.5893555-0.0483398,0.8779297-0.1645508  c0.9082031-0.3666992,1.4692383-1.2783203,1.6679688-2.7104492c0.0571289-0.4101563-0.2294922-0.7890625-0.6396484-0.8457031  c-0.4116211-0.0620117-0.7895508,0.2290039-0.8457031,0.6396484c-0.0825195,0.5913086-0.277832,1.3359375-0.7421875,1.5249023  c-0.5449219,0.2216797-1.484375-0.2685547-1.9370117-0.5922852c-0.7094727-1.050293-0.5639648-1.402832-0.5571289-1.4174805  C20.0849609,70.5205078,20.2573242,70.4643555,20.3452148,70.4541016z"/><path d="M80.9873047,65.1477051c0.7346191-1.5664063,0.0298462-3.5984497-0.3137207-4.4096069  c0.260376-0.588623,0.3522949-1.1950684,0.2609863-1.8171997c-0.3363647-2.2896729-3.0168457-3.9613647-4.4396973-4.697998  c0.0023193-0.0056763,0.0067749-0.0101318,0.0090332-0.0158691c0.4936523-1.2392578-0.2211914-2.4726563-0.3041992-2.609375  c-0.0541992-0.0893555-0.1269531-0.1665039-0.2128906-0.2260742c-2.0112305-1.3974609-2.652832-3.8398438-2.8383789-4.8549805  c0.2978516-0.0825195,0.8276367-0.1069336,1.6459961,0.2783203c0.262207,0.1230469,0.5727539,0.0849609,0.7954102-0.0991211  c0.2241211-0.184082,0.3217773-0.4804688,0.2514648-0.7617188l-0.762207-3.0395508  c-0.0822754-0.2598877-0.161377-0.4860229-0.2358398-0.6900635l0.4604492,0.1021729  c0.0541992,0.0117188,0.1083984,0.0175781,0.1625977,0.0175781c0.1708984,0,0.3383789-0.0585938,0.4731445-0.1679688  c0.1777344-0.1450195,0.2797852-0.362793,0.2768555-0.5917969c-0.0018921-0.1427002-0.3443604-13.8803711-13.3825073-15.5680542  c-0.0021362-0.0033569-0.0020752-0.0072632-0.0042114-0.0105591c-0.074707-0.1152344-7.472168-11.5761719-5.1000977-18.2338867  c0.1391602-0.3901367-0.0644531-0.8188477-0.4550781-0.9580078c-0.3891602-0.140625-0.8193359,0.0649414-0.9580078,0.4550781  c-2.213562,6.2130737,2.8303833,15.5266724,4.6471558,18.5707397l-4.4425659-0.3446655  c-0.4106445-0.0371094-0.7734375,0.2768555-0.8056641,0.6894531c-0.0322266,0.4130859,0.2763672,0.7739258,0.6894531,0.8056641  l5.2504883,0.4077148c10.8325195,0.8105469,12.6816406,10.1655273,12.996582,13.2475586l-3.019043-0.6699219  c-5.3312988-3.5093384-10.7346191-1.7166138-13.2510986-0.50177c0.3777466-0.8202515,1.1726074-1.9907837,2.8458252-3.0333862  c0.1422119-0.1008301,0.3087769-0.2583618,0.4700317-0.4559937c0.968689-0.2217407,4.8478394-0.9180908,8.4806519,1.1459351  c0.1171875,0.0668945,0.2441406,0.0981445,0.3701172,0.0981445c0.2607422,0,0.5141602-0.1362305,0.6523438-0.3793945  c0.2050781-0.3603516,0.0786133-0.8178711-0.28125-1.0224609c-0.3106689-0.1765747-0.6222534-0.333252-0.9335327-0.4759521  c-1.6743164-7.1962891-11.4245605-6.9520874-13.0488892-6.8596191c-1.3208618-0.7202148-2.8823242-1.4459839-4.6851196-2.1764526  c0.0041504-0.001709,0.008606-0.0008545,0.0127563-0.0026245c0.3808594-0.1621094,0.5585938-0.6030273,0.3959961-0.9838867  c-1.3638306-3.2012329-0.5361938-5.7647095,0.3384399-7.3014526c0.168396,1.6047363,0.5786743,3.3569336,1.3969116,5.1471558  c0.1259766,0.2758789,0.3979492,0.4384766,0.6826172,0.4384766c0.1040039,0,0.2104492-0.0214844,0.3110352-0.0678711  c0.3769531-0.1723633,0.5429688-0.6171875,0.3706055-0.9936523c-1.0818481-2.3676758-1.397583-4.6466675-1.3590698-6.6268311  c0-0.00177-0.000061-0.003479,0-0.005249c0.0267944-1.3548584,0.2144165-2.5736084,0.4557495-3.5690918  c0.0976563-0.402832-0.1499023-0.8081055-0.5522461-0.9057617c-0.4042969-0.0942383-0.8076172,0.1499023-0.9057617,0.5522461  c-0.2149048,0.8864136-0.4342041,2.1317139-0.4842529,3.6002197c-0.6585693,0.7401733-2.5623779,3.2097168-2.4504395,6.7034912  c-0.5111084,0.4782104-1.5211182,1.5707397-1.6262207,2.7741089C44.3341675,23.3765259,34.2729492,19.0247803,29.4384766,12.125  c-0.2382813-0.3398438-0.7055664-0.4208984-1.0444336-0.184082c-0.3393555,0.237793-0.421875,0.7055664-0.184082,1.0444336  c6.6010742,9.4208984,21.8183594,14.097168,22.4101563,14.2734375c8.8359375,3.4042969,10.0810547,5.8520508,10.206543,6.746582  c0.0585327,0.4193115-0.083313,0.7297363-0.2194214,0.9260254c-0.0025024,0.0044556-0.0061035,0.0079956-0.0085449,0.0125122  c-0.1004639,0.1415405-0.1954956,0.2220459-0.2012329,0.2279663c-3.5073242,2.1831055-3.8305664,5.050293-3.8422852,5.1713867  c-0.0058594,0.0561523-0.0048828,0.112793,0.0019531,0.168457c0.7387695,5.8217773-2.546875,8.0317383-2.6835938,8.1201172  c-0.0366211,0.0234375-0.0712891,0.0498047-0.1035156,0.0791016l-0.8457031,0.7700195  c-0.1811523,0.1650391-0.2705078,0.4082031-0.2387695,0.6513672c0.03125,0.2431641,0.1796875,0.4550781,0.3974609,0.5683594  l1.7963867,0.9355469c0.1103516,0.0576172,0.2290039,0.0849609,0.3457031,0.0849609  c0.2705078,0,0.5322266-0.1469727,0.6655273-0.4038086c0.1914063-0.3671875,0.0488281-0.8198242-0.3188477-1.0112305  l-0.8432617-0.4394531l0.0102539-0.0087891c0.1422729-0.0977783,0.4959717-0.3632202,0.9226074-0.8098755l6.2243652,2.8943481  c-4.4384766,7.3442383-4.8579102,13.7626953-4.8452148,16.0634766c-3.2709961-0.5708008-10.3510742-4.1987305-13.730957-6.0576172  c0.1434326-0.2919922,0.2646484-0.6263428,0.3691406-0.9870605c1.1929932,0.8054199,3.3600464,2.1738892,5.4897461,3.0344238  c0.0917969,0.0371094,0.1870117,0.0546875,0.2802734,0.0546875c0.296875,0,0.5776367-0.1772461,0.6958008-0.4692383  c0.1552734-0.3837891-0.0302734-0.8208008-0.4145508-0.9760742c-2.3383789-0.9451904-4.8081665-2.600769-5.7207642-3.2383423  c0.0811157-0.5570679,0.1394043-1.1339111,0.1762085-1.7077637c0.9163818-0.1483154,1.6057129-0.5447388,2.1043091-1.0414429  c-0.0189819,0.3902588,0.2599487,0.7355957,0.6536255,0.7819824c0.0297852,0.003418,0.059082,0.0048828,0.0883789,0.0048828  c0.375,0,0.6992188-0.2807617,0.7441406-0.6625977c0.0070801-0.0620728,0.538208-5.3099365-5.0628662-7.6474609  c-0.232666-2.5367432-2.0985107-3.9966431-3.598877-4.7609863c0.8699341-0.2374268,1.8587646-0.3676147,2.9484253-0.3390503  c-0.0043335,0.5464478,0.1168213,1.0962524,0.4677124,1.5809937c0.597168,0.8251953,1.6870117,1.2387695,3.309082,1.2387695  c1.3115234,0,2.9711914-0.2709961,4.9985352-0.8129883c0.4248047-0.1601563,1.2114258-0.3095703,1.5498047-0.1254883  c0.0581055,0.0317383,0.1230469,0.0795898,0.1601563,0.2495117c0.0878906,0.4047852,0.4858398,0.6621094,0.8916016,0.5742188  c0.4047852-0.0878906,0.6621094-0.4868164,0.5742188-0.8916016c-0.121582-0.5615234-0.4370117-0.9941406-0.9121094-1.2514648  c-1.078125-0.5834961-2.6235352-0.0234375-2.7226563,0.0185547c-5.081543,1.3554688-6.3305664,0.5375977-6.6323242,0.1225586  c-0.4122314-0.5678101-0.0679932-1.6049194,0.267334-2.3011475c0.5175171,0.2213135,1.0586548,0.4365234,1.6408691,0.6400146  c0.0820313,0.0288086,0.1655273,0.0419922,0.2475586,0.0419922c0.3100586,0,0.6000977-0.1933594,0.7080078-0.5024414  c0.1367188-0.3911133-0.0693359-0.8188477-0.4604492-0.9555664c-4.2625122-1.4899292-6.5374756-3.4990234-7.7459717-5.3345337  c-0.0127563-0.0169678-0.0169678-0.0375366-0.0313721-0.0536499c-0.0026855-0.0029907-0.0065918-0.0040283-0.0093384-0.006958  c-0.7683716-1.187561-1.0919189-2.296875-1.2178345-3.1424561c2.2034912,1.7473755,5.1731567,3.2631226,8.8878174,4.5322266  c0.0805664,0.0273438,0.1621094,0.0400391,0.2426758,0.0400391c0.3120117,0,0.6035156-0.1958008,0.7099609-0.5073242  c0.1337891-0.3920898-0.0756836-0.8183594-0.4672852-0.9526367c-6.0869141-2.0791016-10.1450195-4.9135742-11.7353516-8.1967773  c-0.6275635-1.295105-0.7637329-2.4208984-0.7449951-3.2284546c3.0298462,2.8119507,8.0346069,5.8723145,16.3045654,8.3148804  c0.0263672,0.0053711,2.6396484,0.5947266,3.3740234,2.4448242c0.4785156,1.2050781,0.0791016,2.753418-1.1870117,4.6030273  c-0.234375,0.3417969-0.1469727,0.8085938,0.1948242,1.0424805c0.1298828,0.0888672,0.2773438,0.1313477,0.4233398,0.1313477  c0.2387695,0,0.4741211-0.1142578,0.6191406-0.3261719c1.5683594-2.2910156,2.0195313-4.3139648,1.340332-6.0131836  c-1.0366211-2.59375-4.3110352-3.3198242-4.394043-3.3349609C36.65625,27.4780273,32.5410156,21.6274414,31.3388672,18.5097656  c-0.1489258-0.3867188-0.5854492-0.5776367-0.9692383-0.4301758c-0.3867188,0.1489258-0.5791016,0.5830078-0.4301758,0.9692383  c0.4504395,1.168457,1.2702026,2.6887817,2.7589722,4.3574219c-0.1907959,0.8432007-0.4263306,2.8084717,0.7063599,5.1870117  c0.5168457,1.0853882,1.2495117,2.1100464,2.1820679,3.0756836c-0.0559692,0.833374-0.0123291,2.8149414,1.2892456,5.0223389  c-0.6231079,0.878418-1.18573,2.2648926-1.4515381,2.9768066l-0.0734863,0.0037842  c-0.3046875,0.015625-0.5698242,0.2148438-0.6699219,0.503418c-0.1601563,0.4609375-0.3374023,0.9077148-0.5146484,1.3530273  c-0.6107178,1.5378418-1.218689,3.1225586-1.1533203,5.1918335c-0.0085449,0.0817871-0.0057373,0.1609497,0.0123901,0.2409668  c0.0546265,0.9664307,0.2414551,2.0276489,0.6653442,3.2546997c0.0751953,0.2177734,0.2460938,0.3891602,0.4638672,0.4643555  l8.5454102,2.9545898c0.144043,2.9501953-0.0595703,7.1166992-0.9921875,8.0424805  c-0.1669922,0.1655273-0.246582,0.3999023-0.2148438,0.6328125c0.03125,0.2329102,0.1704102,0.4375,0.375,0.5527344  c0.487793,0.2749023,11.9741211,6.7197266,15.9404297,6.7197266c0.2001953,0.0107422,0.4208984-0.0859375,0.565918-0.2446289  c0.1411133-0.1547852,0.2114258-0.3623047,0.1933594-0.5708008c-0.0037231-0.0422974-0.1763306-2.3892822,0.5748291-5.9437866  c1.0339355-0.9798584,2.173645-1.5219727,3.0054321-1.8096924c-0.1148682,0.5275879-0.1692505,0.9401245-0.190979,1.1837158  c-0.6404419,0.8562622-1.1078491,1.8167725-1.1612549,2.9262085c-0.0786133,1.6333008,0.7148438,3.2724609,2.4248047,5.0107422  c0.0484009,0.0491943,0.107666,0.0776978,0.1645508,0.1107178c-0.1119385,0.5820923-0.1134033,1.1288452-0.0075073,1.6392212  c-0.0012817,0.1025391,0.0157471,0.206543,0.0592651,0.3067017c0.0020142,0.0045776,0.0056152,0.0078125,0.0076904,0.0123291  c0.0921631,0.3006592,0.2143555,0.5906982,0.3878174,0.8621826c0.1430664,0.2241211,0.3852539,0.3461914,0.6323242,0.3461914  c0.1381836,0,0.2783203-0.0380859,0.4033203-0.1181641c0.3491211-0.2226563,0.4511719-0.6865234,0.2280273-1.0356445  c-0.0020752-0.0031738-0.0030518-0.0067139-0.0050659-0.0099487c1.612793-0.7912598,2.9064941-1.7557373,3.9359741-2.8036499  c0.081604,1.0888062-0.4361572,3.128479-3.871521,6.0991821c-3.7576294-2.4745483-4.8510742-5.7121582-4.8709106-5.7728882  c-0.1235352-0.394043-0.5405273-0.6147461-0.9384766-0.4912109c-0.3955078,0.1230469-0.6162109,0.543457-0.4926758,0.9389648  c0.0357056,0.1147461,0.5369873,1.6395264,1.9871216,3.4451294c-0.3097534,0.8655396-0.7636108,2.7747192,0.1994019,4.7921753  c-0.2304688,0.295166-0.4970703,0.7221069-0.6766968,1.2518311c-0.6865234-0.4146729-1.6574097-0.7926025-2.451355-1.0618896  c-0.0343628-0.149292-0.1015015-0.2922974-0.2259521-0.4003906c-5.0444336-4.3779297-5.4790039-8.7661133-5.4829102-8.8100586  c-0.0341797-0.4111328-0.3999023-0.7133789-0.8066406-0.6855469c-0.4125977,0.0322266-0.7211914,0.3935547-0.6884766,0.8066406  c0.0140991,0.1826782,0.3876343,4.1317749,4.5467529,8.4393311c-3.3449707-0.7421265-5.7028809-2.0518188-7.0198975-3.90271  c-1.3520508-1.8994141-1.3344727-4.003418-1.081543-5.434082c0.0717773-0.4077148-0.2001953-0.796875-0.6083984-0.8691406  c-0.4023438-0.0712891-0.7963867,0.2006836-0.8691406,0.6083984c-0.3027344,1.7128906-0.3164063,4.2421875,1.3369141,6.5649414  c0.5595093,0.7860107,1.2835693,1.4758911,2.1341553,2.0874023c0.0325317,1.1370239,0.5567017,4.1286011,4.7969971,7.019043  c0.012207,0.0068359,1.199707,0.7446289,1.5400391,2.2573242c0.3125,1.387207-0.1523438,3.0117188-1.3808594,4.828125  c-0.2324219,0.3432617-0.1420898,0.8095703,0.2006836,1.0415039c0.1289063,0.0874023,0.2749023,0.1289063,0.4199219,0.1289063  c0.2402344,0,0.4765625-0.1157227,0.621582-0.3295898c1.4702148-2.1733398,2.0092773-4.1914063,1.6020508-5.9985352  c-0.4868164-2.1625977-2.1694336-3.1777344-2.199707-3.1933594c-2.6623535-1.8156128-3.6040649-3.5941162-3.9328613-4.7449341  c1.5524902,0.7693481,3.4221802,1.3342285,5.5993652,1.6799927c1.3798828,0.4013672,3.097168,1.0688477,3.465332,1.4487305  c0.100647,0.1036987,0.2263794,0.1587524,0.3569946,0.1915894c0.0036011,0.0183716,0.0014038,0.0350342,0.0053101,0.0535278  c0.1907349,0.8947144,0.7642212,1.7120361,1.7133179,2.4468994c-0.3861694,0.4968872-0.7793579,1.2270508-0.7445679,2.1444092  c0.0227051,0.5997314,0.2330933,1.1836548,0.6073608,1.7510986c-0.3565674,0.9445801-1.0634155,3.3165894,0.0088501,5.1092529  c0.140625,0.2348633,0.3891602,0.3652344,0.644043,0.3652344c0.1313477,0,0.2636719-0.0341797,0.3842773-0.1064453  c0.3554688-0.2124023,0.4716797-0.6728516,0.2587891-1.0283203c-0.5232544-0.875061-0.3773193-2.1233521-0.1288452-3.0626221  c0.3421631,0.2872314,0.7282104,0.569458,1.168396,0.8448486c0.5307617,0.3320313,0.9707031,0.449707,1.3286133,0.449707  c0.3569336,0,0.6313477-0.1171875,0.8310547-0.2558594c1.0740356-0.7457275,0.9363403-2.8627319,0.7254028-4.1972046  c1.1739502-2.0964355,0.7700195-4.4310303,0.128479-5.8640137c0.2843628-0.7296143,0.2965088-1.2856445,0.2965088-1.3401489  c-0.0002441-0.180481-0.0722046-0.3392334-0.178894-0.4677124c0.2489624-0.036499,0.4750366-0.1895752,0.5817261-0.437561  c0.1640625-0.3803711-0.0112305-0.8212891-0.3916016-0.9853516c-0.3361206-0.1449585-0.6554565-0.2982788-0.9628296-0.456543  c2.5116577-2.2576294,3.8757324-4.3883667,4.0267944-6.3369141c0.067627-0.8726807-0.1258545-1.5128174-0.3192139-1.9261475  c2.6259766-3.4973145,2.8896484-7.3111572,2.9146729-8.0092163c0.5658569-0.4309692,1.0192261-0.9198608,1.3278809-1.4811401  c0.6049805-1.0999756,0.5561523-2.175415,0.4110107-2.8925781c0.2200317-0.0897827,0.4172974-0.1940308,0.5977173-0.3092651  c1.31073,0.635437,3.7409668,2.124939,3.9795532,3.7521362c0.1147461,0.7792969-0.2998047,1.5493164-1.2666016,2.3549805  c-0.3183594,0.2651367-0.3613281,0.737793-0.0961914,1.0561523c0.1484375,0.1782227,0.3618164,0.2700195,0.5766602,0.2700195  c0.1689453,0,0.3393555-0.0571289,0.4794922-0.1738281c0.1650391-0.1374512,0.3174438-0.2765503,0.4602051-0.4168701  c0.274292,0.9829712,0.4191284,2.315918-0.5480957,2.9085693c-0.3530273,0.2167969-0.4638672,0.6787109-0.2475586,1.0317383  c0.1416016,0.230957,0.3881836,0.3579102,0.6401367,0.3579102c0.1337891,0,0.269043-0.0356445,0.3916016-0.1103516  c0.067749-0.0415649,0.119812-0.0906982,0.1820068-0.1350098c0.4315796,0.4591675,1.0166626,1.442627,0.6362915,3.1695557  c-1.1098022-1.951416-2.8731689-3.0563965-3.2787476-3.2913818c-0.1921387-0.1700439-0.3684082-0.3354492-0.5344849-0.4976196  c-0.0144653-0.0933838-0.045166-0.1859131-0.0968628-0.2719116c-1.0297852-1.7109375,0.2573242-4.6577148,0.840332-5.6489258  c0.2099609-0.3569336,0.0913086-0.8164063-0.2651367-1.0263672c-0.3574219-0.2109375-0.8164063-0.0922852-1.0263672,0.2636719  c-0.0682983,0.1154785-1.1243896,1.9412842-1.3775024,3.9810791c-0.3518066-0.953064-0.1601563-1.4990845-0.1444702-1.5386963  c0.1738281-0.3657227,0.0253906-0.8056641-0.3378906-0.9902344c-0.3701172-0.1894531-0.8208008-0.0405273-1.0083008,0.3286133  c-0.1416016,0.2783203-1.2592773,2.828125,3.0195313,6.5786133c0.0419922,0.0371094,0.0878906,0.0688477,0.137207,0.0957031  c0.0302734,0.0161133,3.019043,1.6665039,3.4453125,4.7001953c0.3286133,2.3408203-0.9326172,4.9277344-3.7822266,7.7226563  c-0.3310547,0.3684082-0.7172241,0.9649048-0.9794922,1.6955566c-0.293457-2.0710449,0.6692505-3.7657471,0.7373047-3.8806152  c0.0283203-0.0473633,0.0512695-0.097168,0.0683594-0.1494141c2.5786133-7.7436523-2.6264648-11.3359375-2.6791992-11.371582  c-0.3427734-0.2290039-0.8061523-0.1381836-1.0371094,0.2045898c-0.230957,0.3417969-0.140625,0.8076172,0.2001953,1.0405273  c0.1757813,0.1201172,4.2724609,3.0092773,2.1142578,9.5888672c-0.4003906,0.7436523-3.0444336,6.1772461,2.6933594,10.1206055  c0.1298828,0.0893555,0.277832,0.1318359,0.4243164,0.1318359c0.2382813,0,0.4731445-0.1137695,0.6186523-0.3251953  c0.234375-0.3413086,0.1479492-0.8081055-0.1933594-1.0429688c-0.5392456-0.3706055-0.9738159-0.7565918-1.3465576-1.1480103  c-1.1199341-1.9863281,0.4285889-3.7866821,0.461792-3.8270874c3.1757813-3.112793,4.5839844-6.1298828,4.1850586-8.9682617  c-0.0128174-0.0913696-0.0343628-0.1771851-0.0506592-0.2664185C83.1372681,68.0462036,81.8530884,66.0089111,80.9873047,65.1477051  z M51.1064453,25.8408203c-0.0178223-0.0053711-0.2479248-0.076355-0.6380615-0.2072754  c-0.097229-0.1256714-0.1552124-0.255249-0.1490479-0.411377c0.0115356-0.3001709,0.1873779-0.651062,0.4206543-0.9867554  c0.1315918,0.5383911,0.2970581,1.088562,0.5407715,1.6605835c0.0029297,0.0068359,0.0082397,0.0116577,0.0113525,0.0183716  C51.2288818,25.8898315,51.1702271,25.8653564,51.1064453,25.8408203z M59.4025879,30.0101929  c2.8662109,0.2103882,7.3041992,1.1255493,8.8024902,4.6655273c-2.375061-0.6737061-4.5515137-0.548584-5.868103-0.3547363  c0.006897-0.1536865,0.00177-0.3137207-0.019104-0.4801636C62.1613159,32.5899048,61.1832275,31.31073,59.4025879,30.0101929z   M37.8069458,38.0183105c0.3970947,0.4865112,0.8633423,0.9743652,1.4099121,1.4553833l-2.147522,0.1101074  C37.2963257,39.0322876,37.5580444,38.4656982,37.8069458,38.0183105z M35.5605469,42.0820313  c0.1235352-0.3105469,0.2470703-0.621582,0.3652344-0.9375l5.1750488-0.2653809  c0.4755859,0.3026733,0.9917603,0.5977173,1.5513916,0.8831177c-0.1046753,0.2163696-0.2124634,0.4666138-0.3085327,0.7419434  c-3.5719604-0.15979-6.189209,1.2692871-7.6936646,2.4309692C34.8414917,43.9227905,35.1919556,43.0106201,35.5605469,42.0820313z   M34.9951172,49.3833008c-0.2728271-0.8627319-0.4136963-1.630127-0.4668579-2.3364258  c0.369751-0.3934326,1.2368774-1.2211304,2.569458-1.9194336c0.7770996,0.2398071,3.3481445,1.1954956,3.9968262,3.4257202  c-0.5714722-0.1499634-1.1856079-0.2768555-1.8582153-0.3695679c-0.4155273-0.0556641-0.7890625,0.2299805-0.8457031,0.640625  c-0.0561523,0.4106445,0.2304688,0.7890625,0.640625,0.8457031c4.5792847,0.6306152,6.2818604,2.8164673,6.9093628,4.5635986  c-0.0018921,0.0096436-0.0084229,0.0169067-0.0099487,0.0267334c-0.010498,0.0688477-0.2541504,1.4622803-1.687439,1.8625488  c0.020874-1.4070435-0.0428467-2.6031494-0.0742798-3.0817871c-0.0200195-0.3007813-0.2182617-0.5610352-0.503418-0.659668  L34.9951172,49.3833008z M62.3865967,82.2709351c-0.4115601-0.4232178-0.6036987-0.8134766-0.6756592-1.1415405  c-0.1073608-0.489563,0.0333862-0.9411621,0.2183838-1.2959595c0.4790039,0.5706787,1.1210938,1.1287231,1.9220581,1.6601563  c-0.309021,0.1651611-0.6605225,0.3186646-1.0667114,0.4517212C62.6088257,82.0029297,62.4763184,82.1245728,62.3865967,82.2709351z   M63.4057617,87.2949219c-0.0189819,0.0101318-0.0300293,0.027832-0.0477905,0.0393066  c-0.4060059-0.4637451-0.6289673-0.9208984-0.6484985-1.3571777c-0.024292-0.5507813,0.2723389-1.0075073,0.5200195-1.2927246  c0.6275024,0.3404541,1.350769,0.6590576,2.1696167,0.9553833C64.9580078,86.2354736,64.3249512,86.8048706,63.4057617,87.2949219z   M65.484375,88.847168c-0.0039063,0.0004883-0.1538086,0.0166016-0.5351563-0.2216797  c-0.1426392-0.0892334-0.2738647-0.178772-0.4033813-0.2683716c0.420166-0.2543945,0.8019409-0.5214844,1.1278076-0.805603  C65.6842041,88.2104492,65.6210327,88.72229,65.484375,88.847168z M66.0755005,84.2962646  c-1.0203857-0.3577881-1.8128662-0.7206421-2.4229126-1.0760498c1.1147461-0.4251709,1.9103394-0.9811401,2.4669189-1.5626831  C66.2870483,82.3771973,66.3662109,83.3231812,66.0755005,84.2962646z M65.9633789,78.6831055  c-0.0012207,0.0578613-0.0371704,0.944519-0.8481445,1.8445435c-3.1837769-1.8859253-3.3435059-4.2207031-3.0916748-5.5662231  c1.1033936,1.0751953,2.5625,2.1513062,4.465332,3.0285645C66.1915894,78.0858765,65.970459,78.3544312,65.9633789,78.6831055z   M60.0888062,49.4524536l-3.4754639-1.616333c0.8931885-1.3780518,1.7089233-3.5092773,1.5149536-6.5600586  c1.2064819-0.7296753,5.3543091-2.8745728,9.9859009-1.3605957L66.97229,41.4104004  c-3.7127075-0.967041-6.5126343,0.368042-6.6685791,0.4445801c-0.3537598,0.1750488-0.4990234,0.5906982-0.3532104,0.9512329  c-0.0526733,0.0969238-0.0890503,0.2026978-0.0911255,0.3187866c-0.045166,2.5205688,0.619873,4.2600098,1.4938354,5.4708252  L60.0888062,49.4524536z M61.3403931,43.0481567c1.1112061-0.4099121,4.579834-1.3140259,8.5016479,1.3157349  c-0.0219727,0.0488281-0.0518799,0.0927124-0.0632324,0.1473389c-0.4135742,1.9897461-1.6777344,4.1103516-2.9414063,4.9331055  c-0.4506836,0.293457-0.8701172,0.4018555-1.2783203,0.3144531c-0.1757813-0.0302734-4.3037109-0.8041992-4.199707-6.6069336  C61.3600464,43.1152344,61.3448486,43.0834961,61.3403931,43.0481567z M73.1376953,57.8833008  c-0.734375,1.3134766-2.7006836,2.2055664-5.6850586,2.5805664C67.0415039,60.515625,66.75,60.890625,66.8017578,61.3012695  c0.0478516,0.3793945,0.3706055,0.6567383,0.7431641,0.6567383c0.03125,0,0.0625-0.0019531,0.0942383-0.0058594  c1.5535278-0.1951294,2.8521118-0.5299683,3.9203491-0.9860229c-0.2597656,2.0984497-1.4480591,6.9629517-6.7501221,9.7511597  c0.2086182-1.5593262,1.5761719-3.3446045,2.5509644-4.4414063c0.2753906-0.3095703,0.2470703-0.7836914-0.0625-1.0585938  c-0.3100586-0.2753906-0.7841797-0.2470703-1.0585938,0.0625c-1.0679321,1.201355-1.8464355,2.3339844-2.3380127,3.3840332  c-1.1141357-1.2453613-1.6577759-2.4105835-1.6068115-3.4680176c0.0864258-1.7988281,1.8256836-3.2558594,3.3603516-4.5419922  c0.2836914-0.237793,0.559082-0.4682617,0.8139648-0.6928711c0.3110352-0.2734375,0.3417969-0.7475586,0.0678711-1.0581055  c-0.2724609-0.3110352-0.7475586-0.3422852-1.0581055-0.0678711c-0.2470703,0.2167969-0.5126953,0.4394531-0.7871094,0.6694336  c-0.2469482,0.2069092-0.5027466,0.4239502-0.7599487,0.6468506c0.0028076-0.010498-0.0001831-0.0223389,0.0021973-0.032959  c0.6608276-1.8811035,2.2116699-4.3840332,5.869751-5.6001587c1.0579834-0.1976318,2.618042,0.5324097,3.4815674,1.0325317  C73.3914795,55.8289185,73.7131348,56.8551025,73.1376953,57.8833008z M75.1083984,53.6572266  c-0.036438,0.0894775-0.09552,0.1716309-0.1654053,0.2501831c-0.0617676,0.0427246-0.1144409,0.0930786-0.1617432,0.1539307  c-0.1469116,0.1127319-0.3338013,0.211853-0.5634766,0.2955933c-0.8227539-0.4990234-2.9916992-1.6689453-4.75-1.3051758  c-0.3579102,0.0742188-0.4384766-0.0283203-0.4824219-0.0834961c-0.2568359-0.3256836-0.7275391-0.3813477-1.0532227-0.1235352  c-0.2835693,0.223938-0.3474731,0.6065063-0.1925659,0.9172974c-2.887207,1.4417114-4.3475342,3.6843262-5.0724487,5.5363159  c-0.5957031,0.1331177-1.7189331,0.4586182-2.9294434,1.1883545c0.7422485-2.5206299,1.9308472-5.4251099,3.8638916-8.46521  c0.1162109-0.1821289,0.1474609-0.4057617,0.0869141-0.612793c-0.0605469-0.2075195-0.2075195-0.378418-0.4033203-0.4697266  l-1.6104126-0.7489624l0.6936035-0.4699097c1.4147339,1.2422485,2.9018555,1.5108032,2.9104614,1.5118408  c0.1835938,0.0390625,0.3696289,0.0585938,0.5576172,0.0585938c0.6010742,0,1.2207031-0.1992188,1.8193359-0.5893555  c1.7983398-1.1708984,3.1679688-3.8466797,3.5917969-5.8847656c0.0254517-0.1231079,0.0106201-0.2417603-0.0217285-0.3547363  c0.0083008-0.0102539,0.0212402-0.013855,0.0290527-0.0246582c0.2426758-0.3354492,0.1674805-0.8041992-0.168457-1.0473633  c-0.8945923-0.6470947-1.770874-1.1141357-2.6184692-1.4661865l1.088501-1.4249878  c0.4515991,0.2233276,0.904541,0.4754028,1.3580933,0.7808228c0.0776367,0.0522461,0.1650391,0.0898438,0.2563477,0.1103516  l1.9310913,0.4284668c0.0111694,0.052124,0.0131836,0.1049805,0.0361938,0.1555176  c0.0024414,0.0053711,0.2519531,0.5566406,0.4985352,1.3295898l0.4262695,1.7036133  c-1.4760742-0.2124023-2.2314453,0.5507813-2.2714844,0.5917969c-0.1489258,0.1552734-0.2241211,0.3671875-0.206543,0.581543  c0.0141602,0.1689453,0.3730469,4.0961914,3.3945313,6.3144531C75.1049805,52.7617188,75.2675781,53.2641602,75.1083984,53.6572266z  "/><path d="M43.6513672,80.340332c-4.1748047-3.2050781-1.9477539-8.4013672-1.8510742-8.6206055  c0.1669922-0.3789063-0.0039063-0.8212891-0.3818359-0.9892578c-0.3774414-0.1674805-0.8198242,0.0009766-0.9887695,0.3798828  c-0.015625,0.0349121-0.8325195,1.9414063-0.7702026,4.3023071c-2.2241211,1.6692505-3.0728149,4.3148193-3.2953491,6.8936157  c-1.5015259-3.5103149-1.8063354-6.6679688-0.8612061-9.4000244c1.5317383-4.4277344,5.8549805-6.2695313,5.8984375-6.2875977  c0.3818359-0.1586914,0.5639648-0.597168,0.4057617-0.9794922s-0.5932617-0.5639648-0.9780273-0.4067383  c-0.1542969,0.0633545-2.9677124,1.2568359-5.0766602,4.0686646c-0.1390991,0.0488892-0.2694092,0.1260376-0.3623047,0.2545776  c-1.8344727,2.5351563-8.2167969-0.4169922-10.6005859-1.8085938c-2.5411987-1.1090088-4.7653809-1.4349365-6.6722412-1.31073  c-0.0057983,0.0011597-0.0116577,0.000061-0.017395,0.0014038c-0.84375,0.0562134-1.6259155,0.1990356-2.343689,0.40448  c-0.1623535-3.8267212,0.6057739-6.4672852,2.3121338-7.8231812c2.1713867-1.7255859,5.2333984-0.8022461,5.3144531-0.7783203  c4.5151367,1.0834961,10.4570313,1.9912109,13.1191406,0.1669922c0.7333984-0.5029297,1.1791992-1.203125,1.2890625-2.0244141  c0.0551758-0.4106445-0.2329102-0.7880859-0.6435547-0.8427734c-0.4111328-0.0620117-0.7880859,0.2329102-0.8427734,0.6435547  C36.25,56.5898438,36.043457,56.9033203,35.6538086,57.1704102c-0.8812256,0.6044922-2.5424805,0.8467407-4.7524414,0.7421875  c1.7565918-0.7523804,3.2420654-1.9663086,4.2597656-3.5888672c0.2202148-0.3505859,0.1142578-0.8134766-0.2368164-1.0336914  c-0.3491211-0.2202148-0.8139648-0.1137695-1.0336914,0.2368164c-1.5878906,2.5302734-4.5351563,3.9165039-7.8706055,3.7353516  c-0.0231323-0.0021973-0.0422974,0.0075684-0.0648193,0.0075073c-0.7003174-0.1373291-1.4243774-0.2946167-2.1715088-0.4738159  c-0.1552734-0.0488281-3.8339844-1.1762695-6.6367188,1.0395508c-0.8140259,0.6436157-1.4535522,1.4989014-1.9283447,2.5484619  c-0.0040283,0.0012207-0.0080566,0.000061-0.012085,0.0013428c-0.1879883,0.0600586-4.6303711,1.515625-6.7099609,5.8071289  c-1.4140625,2.9174805-1.3779297,6.3955078,0.1064453,10.3369141c0.112793,0.3007813,0.3984375,0.4858398,0.7016602,0.4858398  c0.0878906,0,0.1772461-0.0151367,0.2641602-0.0483398c0.3876953-0.1459961,0.5834961-0.578125,0.4375-0.9658203  c-1.3310547-3.5351563-1.387207-6.6098633-0.1669922-9.1401367c1.2169189-2.5228271,3.4507446-3.9401245,4.7698364-4.5941772  c-0.3331299,1.4488525-0.4467163,3.1522827-0.3291626,5.1153564c-2.9909058,1.3352661-4.5287476,3.5767212-4.5559082,3.6184692  c-0.2290039,0.3442383-0.1352539,0.8076172,0.2080078,1.0375977c0.1279297,0.0854492,0.2724609,0.1264648,0.4160156,0.1264648  c0.2416992,0,0.4790039-0.1166992,0.6240234-0.3320313c0.1077881-0.1604614,1.7096558-2.4697876,4.8352661-3.4821777  C13.204834,70.9672852,9.0020752,76.4208374,8.7617188,84.5625c0,0.0007324-0.0001221,0.0014038-0.0001831,0.0020752  c-0.000061,0.0014648-0.0002441,0.0028076-0.0003052,0.0042725c-0.0007324,0.0253296,0.0106201,0.0471191,0.0123291,0.0718994  c0.0048828,0.0722656,0.0106812,0.1445923,0.0365601,0.2134399c0.0289307,0.0768433,0.0753174,0.1433105,0.1264038,0.2059326  c0.010498,0.0129395,0.013855,0.0290527,0.0253906,0.0414429l0.0023804,0.0025635  c0.0006714,0.0007324,0.0014038,0.0014648,0.0020752,0.0021973l3.8075562,4.0919189  c0.1474609,0.1591797,0.3481445,0.2392578,0.5488281,0.2392578c0.1831055,0,0.3662109-0.0664063,0.5107422-0.2011719  c0.3032227-0.2817383,0.3203125-0.7563477,0.0380859-1.0595703l-3.5895386-3.857605  c0.1068115-2.494751,0.6183472-4.7263794,1.3479614-6.6811523c0.546936-0.6859741,1.1550293-1.0682373,1.8597412-1.1453247  c0.9109497-0.1013794,1.7962036,0.3189087,2.3361816,0.6518555c-0.5133667,0.7067871-1.1098633,1.0964355-1.7878418,1.1279297  c-0.4140625,0.019043-0.7338867,0.3696289-0.7148438,0.7832031c0.0180664,0.4023438,0.3500977,0.7158203,0.7485352,0.7158203  c0.0117188,0,0.0229492-0.0004883,0.034668-0.0009766c0.9648438-0.0439453,2.3369141-0.5073242,3.3540039-2.3916016  c0.0693359-0.0991211,1.6821289-2.4580078,0.324707-4.6811523c-0.0180664-0.0297852-0.0390625-0.059082-0.0610352-0.0859375  c-0.6904297-0.8408203-1.4921875-2.3154297-1.1357422-2.7817383c0.0490112-0.0640869,0.0761719-0.1364136,0.1016846-0.2086182  c0.8912964-0.9300537,1.5942383-1.5133057,1.8773804-1.7357788c1.5942993-0.0404053,3.4398804,0.2791138,5.5429077,1.1958618  c0.7758789,0.4550781,6.4425659,3.6656494,10.1796875,2.8169556c-0.0667114,0.1654053-0.1382446,0.3255615-0.1982422,0.4979858  c-0.8878784,2.5516357-0.8230591,5.3928833,0.142395,8.4746094c-0.0443115-0.0276489-0.0825195-0.0626221-0.133606-0.0810547  c-0.3911133-0.1411133-0.8198242,0.0610352-0.9599609,0.4511719l-1.6796875,4.6606445l-3.7006836,3.1655273  c-0.3149414,0.269043-0.3520508,0.7426758-0.0825195,1.0571289c0.1484375,0.1738281,0.3583984,0.2626953,0.5703125,0.2626953  c0.1723633,0,0.3457031-0.059082,0.4868164-0.1801758l3.8515625-3.2944336  c0.0991211-0.0844727,0.1743164-0.1933594,0.2182617-0.3154297l1.7296143-4.7987671  c0.4394531,1.196167,1.0080566,2.4263306,1.7166748,3.6913452c0.0293579,0.0522461,0.0807495,0.0787354,0.1196899,0.1209717  c0.1906128,2.2944336,0.6719971,4.059021,0.7211304,4.2315674c0.09375,0.3300781,0.394043,0.5449219,0.7207031,0.5449219  c0.0678711,0,0.1367188-0.0092773,0.2050781-0.0288086c0.3984375-0.112793,0.6298828-0.527832,0.5170898-0.9262695  c-0.0253296-0.0883789-2.3205566-8.4107666,1.3552856-12.2286987c0.3590698,1.5026245,1.1796875,3.0454712,2.8463745,4.3248901  c1.9536133,1.5112305,6.9086914,6.1582031,6.3798828,9.4736328c-0.0649414,0.4091797,0.2133789,0.793457,0.6225586,0.8588867  c0.0400391,0.0063477,0.0795898,0.0092773,0.1191406,0.0092773c0.3623047,0,0.6806641-0.2626953,0.7397461-0.6318359  C51.3740234,86.3671875,43.96875,80.5854492,43.6513672,80.340332z M16.5292969,73.5200195  c0.4730225,0.8145142,0.2803955,1.7078857,0.0360718,2.3227539C15.8285522,75.399353,14.6420288,74.8657837,13.3383789,75  c-0.2024536,0.0215454-0.3937378,0.0775757-0.5865479,0.1289063c0.7790527-1.4974365,1.6454468-2.7824707,2.479248-3.8317871  C15.5865479,72.2961426,16.2648926,73.1938477,16.5292969,73.5200195z"/><text x="0" y="115" fill="#000000" font-size="5px" font-weight="bold" font-family="'Helvetica Neue', Helvetica, Arial-Unicode, Arial, Sans-serif">Created by nakals</text><text x="0" y="120" fill="#000000" font-size="5px" font-weight="bold" font-family="'Helvetica Neue', Helvetica, Arial-Unicode, Arial, Sans-serif">from the Noun Project</text></svg>