<svg xmlns="http://www.w3.org/2000/svg" viewBox="0 0 100 125" x="0px" y="0px"><path d="M42.0816944,19.4443333 L62.9636389,55.6129444 L51.4166944,55.6129444 L42.0816944,39.4443333 L31.7650278,57.3137778 L33.7289167,57.3137778 L27.9555833,67.3137778 L14.4444722,67.3137778 L42.0816944,19.4443333 Z M22.1819444,80.7158333 L43.0638889,44.5472222 L48.8375,54.5469444 L39.5025,70.7158333 L60.1361111,70.7158333 L59.1541667,69.015 L70.7011111,69.0147222 L77.4566667,80.7158333 L22.1819444,80.7158333 Z M50.8011944,31.1455833 L57.5570278,19.4444722 L85.1945278,67.3139167 L43.4303611,67.3139167 L49.20425,57.3141944 L67.8739722,57.3139167 L57.5570278,39.4444722 L56.5750833,41.1453056 L50.8011944,31.1455833 Z"/><text x="0" y="115" fill="#000000" font-size="5px" font-weight="bold" font-family="'Helvetica Neue', Helvetica, Arial-Unicode, Arial, Sans-serif">Created by Avana Vana</text><text x="0" y="120" fill="#000000" font-size="5px" font-weight="bold" font-family="'Helvetica Neue', Helvetica, Arial-Unicode, Arial, Sans-serif">from the Noun Project</text></svg>