<svg xmlns="http://www.w3.org/2000/svg" xmlns:xlink="http://www.w3.org/1999/xlink" version="1.1" x="0px" y="0px" viewBox="0 0 54 62.5" style="enable-background:new 0 0 54 50;" xml:space="preserve"><g><g><path d="M39,40.1l4.3,7.9H9.7l18-32.6l-0.6-0.3l0.6,0.3l6.1-11.2L50.6,35H19.8v2H54L33.8,0l-7.9,14.5L6.3,50h40.4l-5.9-10.8    L39,40.1z M29.5,18.5l-1.8,1L35,32.7l1.8-1L29.5,18.5z M11.7,35H3.4L20.2,4.2l3.8,7l1.8-1L20.2,0L0,37h11.7V35z"/></g></g><text x="0" y="65" fill="#000000" font-size="5px" font-weight="bold" font-family="'Helvetica Neue', Helvetica, Arial-Unicode, Arial, Sans-serif">Created by Retinaicon</text><text x="0" y="70" fill="#000000" font-size="5px" font-weight="bold" font-family="'Helvetica Neue', Helvetica, Arial-Unicode, Arial, Sans-serif">from the Noun Project</text></svg>